<svg width="25" height="25" viewBox="0 0 25 25" fill="none" xmlns="http://www.w3.org/2000/svg">
<path d="M15.1209 10.7807L15.6052 10.2964L18.5414 10.2189C18.7137 10.2142 18.8794 10.1417 19.0026 10.0172L21.5634 7.40623C21.6532 7.3122 21.7143 7.1948 21.7391 7.06854C21.7639 6.94227 21.7514 6.8127 21.7031 6.69584C21.6547 6.57898 21.5728 6.47997 21.4672 6.41105C21.3617 6.34212 21.2373 6.30632 21.1094 6.30806L18.4971 6.37573L18.5132 3.80595C18.5114 3.67885 18.4725 3.55624 18.4013 3.45314C18.3301 3.35003 18.2297 3.2709 18.1124 3.22544C17.9951 3.17997 17.8659 3.17013 17.7408 3.19713C17.6156 3.22413 17.4999 3.2868 17.4077 3.37746L14.8468 5.98838C14.7257 6.11295 14.6566 6.27843 14.6544 6.44943L14.6344 9.40089L14.6428 9.45163L10.4604 13.6334C10.3357 13.7581 10.2641 13.9256 10.2613 14.0992C10.2585 14.2727 10.3248 14.438 10.4455 14.5588C10.5059 14.618 10.5778 14.6644 10.6571 14.6953C10.7363 14.7262 10.8214 14.7409 10.9074 14.7386C11.0787 14.7339 11.2434 14.6624 11.3663 14.5392L15.1209 10.7807ZM18.2778 8.92567L15.9362 8.99129L15.9571 6.69434L17.2172 5.4343L17.2066 7.08813C17.205 7.26017 17.2711 7.42376 17.3908 7.54346C17.5105 7.66316 17.6741 7.72935 17.8462 7.72768L17.8833 7.72246L19.5336 7.64258L18.2778 8.92567Z" fill="#2A3180"/>
<path d="M15.8128 12.287C16.4184 13.6218 16.5437 15.1165 16.1673 16.5138C15.7909 17.9111 14.9363 19.1235 13.7507 19.9422C12.5651 20.7609 11.1226 21.1346 9.67169 20.9991C8.22079 20.8636 6.85226 20.2272 5.80179 19.1997C4.75132 18.1721 4.08464 16.8176 3.91656 15.3695C3.74849 13.9213 4.08953 12.4701 4.88097 11.2658C5.6724 10.0615 6.8647 9.17949 8.25253 8.77158C9.64036 8.36367 11.1369 8.45544 12.4843 9.03108" stroke="#2A3180" stroke-width="1.6" stroke-linecap="round" stroke-linejoin="round"/>
<circle cx="10.2538" cy="14.6465" r="1.42168" transform="rotate(-45 10.2538 14.6465)" fill="#2A3180" stroke="#2A3180"/>
</svg>
